<svg width="41" height="41" viewBox="0 0 41 41" fill="none" xmlns="http://www.w3.org/2000/svg">
<path d="M6.84469 13.5524C6.72111 16.8121 7.5461 22.3479 13.0992 27.9011C14.4388 29.2407 15.7775 30.3052 17.0835 31.1476M9.46059 8.43448C11.8402 6.05485 15.6368 6.37458 17.1477 9.08183L18.2564 11.0685C19.257 12.8614 18.8554 15.2133 17.2794 16.7892C17.2794 16.7892 15.3681 18.7008 18.8337 22.1665C22.2982 25.631 24.211 23.7208 24.211 23.7208C25.7869 22.1448 28.1388 21.7432 29.9317 22.7438L31.9183 23.8525C34.6257 25.3633 34.9453 29.1599 32.5658 31.5396C31.1359 32.9695 29.3842 34.0821 27.4478 34.1554C26.0572 34.2082 24.2522 34.0883 22.2085 33.5023" stroke="#1C274C" stroke-width="3" stroke-linecap="round"/>
</svg>
