<svg width="800" height="800" viewBox="0 0 800 800" fill="none" xmlns="http://www.w3.org/2000/svg">
<path d="M66.6665 733.333L113.717 562.303C84.8072 512.13 69.6252 455.226 69.6995 397.32C69.3648 214.849 217.548 66.6665 399.666 66.6665C488.056 66.6665 571.05 100.935 633.54 163.446C664.343 194.088 688.756 230.538 705.37 270.684C721.983 310.83 730.463 353.873 730.32 397.32C730.32 579.44 582.136 727.623 400 727.623C344.56 727.623 290.458 713.836 242.068 687.306L66.6665 733.333ZM249.808 627.83L259.891 633.873C302.216 658.92 350.486 672.146 399.666 672.18C550.88 672.18 674.21 548.873 674.21 397.636C674.21 324.392 645.653 255.185 593.893 203.447C568.443 177.851 538.176 157.545 504.843 143.7C471.506 129.855 435.76 122.744 399.666 122.777C248.114 122.797 124.825 246.105 124.825 397.34C124.825 449.08 139.281 499.833 166.834 543.516L173.215 553.933L145.327 655.4L249.808 627.83Z" fill="#2AD247"/>
<path fill-rule="evenodd" clip-rule="evenodd" d="M317.341 258.887C311.295 245.101 304.579 244.766 298.868 244.766C293.826 244.431 288.429 244.431 282.718 244.431C277.361 244.431 268.282 246.44 260.561 254.849C252.821 263.239 231.669 283.072 231.669 323.722C231.669 364.393 261.231 403.703 265.268 409.08C269.286 414.456 322.383 500.463 406.4 533.746C476.277 561.3 490.4 555.923 505.523 554.23C520.63 552.556 554.25 534.416 561.3 514.92C568.017 495.776 568.017 478.976 566.007 475.606C563.997 472.26 558.267 470.23 550.213 465.86C541.803 461.84 501.487 441.673 493.767 438.976C486.027 436.296 480.65 434.956 475.273 443.013C469.897 451.423 454.1 469.896 449.08 475.273C444.353 480.65 439.33 481.32 431.257 477.283C422.867 473.263 396.317 464.52 364.727 436.296C340.187 414.436 323.722 387.236 318.68 379.183C313.993 370.773 318.011 366.4 322.383 362.363C326.086 358.68 330.793 352.633 334.83 347.926C338.847 343.2 340.187 339.516 343.22 334.14C345.9 328.764 344.56 323.722 342.55 319.704C340.523 316.002 324.746 275.352 317.341 258.887Z" fill="#2AD247"/>
</svg>
