<svg width="800" height="800" viewBox="0 0 800 800" fill="none" xmlns="http://www.w3.org/2000/svg">
<path d="M437.671 397.907C444.531 397.162 449.488 390.992 448.743 384.13C447.998 377.264 441.845 372.338 434.961 373.053C353.796 381.848 315.204 351.953 297.138 325.299C271.894 288.049 271.331 234.278 295.709 188.312C319.995 142.529 362.659 116.278 412.78 116.278H412.816C451 116.278 485.253 131.854 504.443 157.934C524.463 185.138 527.734 222.949 513.915 267.29C508.495 284.692 490.808 307.519 475.243 312.017C468.895 313.872 463.878 313.189 459.948 309.935C455.419 306.169 453.795 300.323 453.93 298.009C453.955 297.863 453.966 297.728 453.979 297.582L467.675 160.63C468.408 153.764 463.439 147.605 456.579 146.879C449.596 146.117 443.554 151.115 442.821 157.982L441.61 169.339C441.391 169.177 441.211 168.98 440.99 168.822C424.974 157.304 402.531 156.182 380.931 165.825C344.151 182.219 317.595 234.325 324.095 277.324C328.971 309.575 351.708 330.462 386.491 334.63C402.458 336.529 422.056 331.817 436.595 321.068C438.706 324.102 441.198 326.86 443.98 329.173C454.283 337.718 467.845 340.165 482.188 336.033C507.298 328.769 530.174 299.155 537.79 274.723C558.346 208.732 541.953 166.728 524.583 143.119C500.694 110.654 458.909 91.2754 412.815 91.2754H412.779C353.105 91.2754 302.385 122.373 273.625 176.59C244.963 230.63 246.068 294.504 276.445 339.323C303.111 378.667 349.235 399.558 408.11 399.558C417.639 399.56 427.503 399.012 437.671 397.907ZM436.414 218.702L429.298 292.969C422.034 304.902 402.979 311.402 389.454 309.809C365.693 306.959 352.021 294.777 348.816 273.59C344.006 241.773 364.558 200.494 391.114 188.654C397.535 185.792 404.029 184.363 409.998 184.363C416.284 184.363 421.998 185.955 426.391 189.118C434.265 194.775 437.72 205.005 436.414 218.702Z" fill="#685EDF"/>
<path d="M741.321 270.666L650.525 214.439V25C650.525 18.0975 644.934 12.5 638.025 12.5H155.964C149.061 12.5 143.464 18.0975 143.464 25V212.699C100.071 240.054 70.8886 260.007 57.0074 271.881C37.9399 288.184 27.4424 311.42 27.4424 337.299V700.11C27.4411 748.298 66.6436 787.5 114.825 787.5H685.18C708.726 787.5 730.086 778.095 745.815 762.896C745.844 762.868 745.882 762.859 745.91 762.83C745.924 762.815 745.926 762.796 745.94 762.781C762.324 746.887 772.557 724.688 772.557 700.11V337.299C772.559 315.491 764.38 284.955 741.321 270.666ZM650.525 243.841L713.766 283.005L650.525 338.166V243.841ZM734.8 297.825C743.505 307.82 747.559 323.788 747.559 337.299V700.11C747.559 713.544 743.195 725.921 735.945 736.115L494.889 507.081L734.8 297.825ZM168.464 37.5H625.525V359.961L399.975 556.701L168.462 354.857L168.464 37.5ZM143.464 242.301V333.081L84.7399 281.888C97.9374 272.091 117.767 258.72 143.464 242.301ZM52.4411 700.11V337.299C52.4411 322.39 57.1861 309.292 65.9186 298.651L314.06 514.974L72.2674 745.47C60.1361 734.08 52.4411 718.024 52.4411 700.11ZM114.825 762.5C107.67 762.5 100.902 761.04 94.4961 758.813L332.982 531.47L391.759 582.71C394.115 584.761 397.045 585.786 399.974 585.786C402.902 585.786 405.839 584.761 408.189 582.704L475.966 523.586L717.59 753.158C708.117 758.971 697.09 762.5 685.181 762.5H114.825Z" fill="#685EDF"/>
</svg>
