<svg width="800" height="800" viewBox="0 0 800 800" fill="none" xmlns="http://www.w3.org/2000/svg">
<path d="M463.288 225.775H462.543C455.64 225.775 450.415 231.373 450.415 238.275C450.415 245.178 456.384 250.775 463.288 250.775C470.191 250.775 475.788 245.178 475.788 238.275C475.788 231.373 470.19 225.775 463.288 225.775Z" fill="#685EDF"/>
<path d="M564.734 225.775H564.037C557.135 225.775 551.885 231.373 551.885 238.275C551.885 245.178 557.83 250.775 564.732 250.775C571.635 250.775 577.232 245.178 577.232 238.275C577.232 231.373 571.637 225.775 564.734 225.775Z" fill="#685EDF"/>
<path d="M666.228 225.775H665.483C658.581 225.775 653.356 231.373 653.356 238.275C653.356 245.178 659.325 250.775 666.228 250.775C673.132 250.775 678.728 245.178 678.728 238.275C678.728 231.373 673.132 225.775 666.228 225.775Z" fill="#685EDF"/>
<path d="M564.941 574.085C500.58 537.788 481.305 540.754 432.226 568.5C407.044 585.236 376.721 575.031 324.022 532.111C313.677 523.683 303.282 514.283 293.162 504.213C283.049 494.056 273.656 483.663 265.232 473.31C225.505 424.561 214.689 380.073 227.592 366.664C265.617 325.776 256.987 292.201 223.424 232.698C203.209 194.459 181.01 156.398 151.464 147.664C130.04 141.371 98.2286 157.856 88.7561 164.144C64.3911 180.373 41.2524 209.078 28.3674 239.065C4.66737 294.235 10.9536 360.726 24.7424 404.561C47.3924 476.424 101.756 559.64 170.177 627.169C237.731 695.62 320.946 749.971 392.779 772.56C415.471 779.72 444.237 784.865 474.382 784.865C502.429 784.865 531.67 780.41 558.287 768.978C588.274 756.069 616.96 732.93 633.147 708.595C639.446 699.153 655.992 667.348 649.627 645.833C640.942 616.339 602.881 594.135 564.941 574.085ZM552.96 596.026C576.111 608.264 619.207 631.049 625.646 652.918C626.966 657.373 625.361 665.491 622.399 673.93L453.284 585.318C485.091 567.707 497.971 565.011 552.96 596.026ZM144.391 171.643C166.296 178.119 189.081 221.221 201.484 244.678C234.25 302.765 234.146 321.095 213.076 345.401L121.85 175.445C128.8 172.875 135.661 171.18 140.587 171.18C142.041 171.179 143.322 171.326 144.391 171.643ZM548.412 746.009C499.444 767.054 438.024 760.626 400.286 748.713C332.14 727.283 252.746 675.256 187.915 609.553C187.872 609.51 187.836 609.474 187.792 609.43C122.119 544.623 70.0749 465.223 48.5899 397.053C36.7186 359.309 30.3161 297.87 51.3424 248.926C61.8936 224.37 80.2461 201.063 99.7161 187.076L198.754 371.599C193.301 401.264 210.24 445.396 245.849 489.1C254.79 500.086 264.751 511.109 275.487 521.888C286.23 532.588 297.246 542.548 308.232 551.497C346.831 582.938 387.361 609.324 425.316 598.89L611.201 696.29C597.36 716.253 573.529 735.2 548.412 746.009Z" fill="#685EDF"/>
<path d="M761.939 134.638C704.804 25.7388 569.696 -16.3812 460.755 40.71C351.856 97.8638 309.718 232.983 366.828 341.906C370.966 349.798 375.69 357.593 380.92 365.173L347.155 423.046C344.799 427.081 344.89 432.098 347.399 436.041C349.895 439.99 354.394 442.181 359.05 441.796L455.925 433.233C489.794 452.068 527.049 461.516 564.36 461.516C599.828 461.516 635.344 452.971 668.023 435.826C776.929 378.68 819.061 243.568 761.939 134.638ZM656.409 413.69C595.819 445.478 524.255 443.958 464.966 409.625C463.063 408.52 460.895 407.94 458.704 407.94C458.338 407.94 457.971 407.959 457.605 407.989L380.933 414.764L406.598 370.776C409.119 366.449 408.819 361.035 405.829 357.019C399.414 348.395 393.744 339.404 388.971 330.298C338.258 233.581 375.665 113.605 472.37 62.8475C569.093 12.1213 689.056 49.56 739.801 146.253C790.521 242.975 753.106 362.945 656.409 413.69Z" fill="#685EDF"/>
</svg>
